<svg xmlns="http://www.w3.org/2000/svg" xmlns:xlink="http://www.w3.org/1999/xlink" version="1.1" id="Layer_1" x="0px" y="0px" width="100px" height="100px" viewBox="203.684 4.731 100 100" enable-background="new 203.684 4.731 100 100" xml:space="preserve">
<g>
	<path fill="#000000" d="M248.825,47.788c0,1.737,1.63,2.811,3.125,3.435v-7.505C249.952,44.077,248.825,45.512,248.825,47.788z"/>
	<path fill="#000000" d="M296.74,47.787c-3.353,0-6.159,2.389-6.804,5.557h-8.545c-0.326-6.623-2.959-12.621-7.129-17.227   l6.155-6.152c1.098,0.727,2.409,1.156,3.822,1.156c3.829,0,6.944-3.116,6.944-6.945c0-3.829-3.115-6.944-6.944-6.944   s-6.944,3.116-6.944,6.944c0,1.414,0.429,2.727,1.158,3.825l-6.155,6.152c-4.604-4.168-10.604-6.801-17.226-7.129v-8.545   c3.166-0.646,5.556-3.451,5.556-6.804c0-3.829-3.115-6.944-6.944-6.944s-6.944,3.116-6.944,6.944c0,3.353,2.39,6.158,5.556,6.804   v8.545c-6.622,0.328-12.621,2.961-17.226,7.129L228.915,28c0.729-1.099,1.158-2.412,1.158-3.825c0-3.829-3.115-6.944-6.944-6.944   s-6.944,3.116-6.944,6.944c0,3.829,3.115,6.945,6.944,6.945c1.413,0,2.725-0.429,3.822-1.156l6.155,6.152   c-4.17,4.606-6.803,10.604-7.129,17.227h-8.545c-0.645-3.168-3.451-5.557-6.804-5.557c-3.829,0-6.944,3.116-6.944,6.944   c0,3.83,3.115,6.944,6.944,6.944c3.353,0,6.158-2.39,6.804-5.553h8.545c0.328,6.621,2.961,12.619,7.129,17.223l-6.152,6.155   c-1.099-0.729-2.412-1.158-3.825-1.158c-3.829,0-6.944,3.116-6.944,6.944c0,3.83,3.115,6.944,6.944,6.944s6.944-3.114,6.944-6.944   c0-1.413-0.429-2.724-1.155-3.822l6.152-6.155c4.606,4.17,10.604,6.801,17.226,7.129v8.545c-3.166,0.646-5.556,3.45-5.556,6.804   c0,3.83,3.115,6.944,6.944,6.944s6.944-3.114,6.944-6.944c0-3.354-2.39-6.158-5.556-6.804v-8.545   c6.622-0.328,12.619-2.959,17.226-7.129l6.153,6.155c-0.728,1.099-1.156,2.409-1.156,3.822c0,3.83,3.115,6.944,6.944,6.944   s6.944-3.114,6.944-6.944c0-3.828-3.115-6.944-6.944-6.944c-1.413,0-2.727,0.429-3.825,1.158l-6.152-6.155   c4.168-4.604,6.801-10.602,7.129-17.223h8.545c0.646,3.163,3.451,5.553,6.804,5.553c3.829,0,6.944-3.114,6.944-6.944   C303.684,50.902,300.569,47.787,296.74,47.787z M284.24,20.009c2.298,0,4.167,1.869,4.167,4.167c0,2.298-1.869,4.167-4.167,4.167   s-4.167-1.869-4.167-4.167C280.073,21.878,281.942,20.009,284.24,20.009z M223.128,28.342c-2.298,0-4.167-1.869-4.167-4.167   c0-2.297,1.869-4.167,4.167-4.167s4.167,1.869,4.167,4.167C227.295,26.473,225.426,28.342,223.128,28.342z M210.628,58.897   c-2.298,0-4.167-1.869-4.167-4.167s1.869-4.167,4.167-4.167s4.167,1.869,4.167,4.167S212.926,58.897,210.628,58.897z    M223.128,89.452c-2.298,0-4.167-1.868-4.167-4.166s1.869-4.167,4.167-4.167s4.167,1.869,4.167,4.167   S225.426,89.452,223.128,89.452z M249.517,11.675c0-2.297,1.869-4.167,4.167-4.167s4.167,1.869,4.167,4.167   c0,2.298-1.869,4.167-4.167,4.167S249.517,13.973,249.517,11.675z M257.851,97.786c0,2.298-1.869,4.166-4.167,4.166   s-4.167-1.868-4.167-4.166s1.869-4.167,4.167-4.167S257.851,95.488,257.851,97.786z M264.102,61.678c0,5.368-3.52,9.22-8.681,9.676   v2.824h-3.472v-2.954c-6.339-0.903-8.681-5.347-8.681-9.546h5.556c0,0.849,0.009,3.128,3.125,3.9v-8.33   c-3.374-0.982-8.681-3.877-8.681-9.46c0-5.37,3.52-9.221,8.681-9.676v-2.824h3.472v2.954c6.338,0.902,8.681,5.347,8.681,9.546   h-5.556c0-0.851-0.01-3.128-3.125-3.901v8.332C258.794,53.203,264.102,56.095,264.102,61.678z M284.24,81.119   c2.298,0,4.167,1.869,4.167,4.167s-1.869,4.166-4.167,4.166s-4.167-1.868-4.167-4.166S281.942,81.119,284.24,81.119z    M296.74,58.897c-2.298,0-4.167-1.869-4.167-4.167s1.869-4.167,4.167-4.167s4.167,1.869,4.167,4.167S299.038,58.897,296.74,58.897z   "/>
	<path fill="#000000" d="M255.421,65.746c1.998-0.357,3.125-1.793,3.125-4.068c0-1.736-1.63-2.811-3.125-3.432V65.746z"/>
</g>
</svg>